<?xml version="1.0" encoding="UTF-8" standalone="no"?>
<svg
   version="1.1"
   id="Layer_1"
   x="0px"
   y="0px"
   viewBox="0 0 122.88 97.05"
   style="enable-background:new 0 0 122.88 97.05"
   xml:space="preserve"
   sodipodi:docname="module_image.svg"
   inkscape:version="1.2.2 (b0a8486541, 2022-12-01)"
   inkscape:export-filename="../../../../../../Downloads/module_image.png"
   inkscape:export-xdpi="694.90332"
   inkscape:export-ydpi="694.90332"
   xmlns:inkscape="http://www.inkscape.org/namespaces/inkscape"
   xmlns:sodipodi="http://sodipodi.sourceforge.net/DTD/sodipodi-0.dtd"
   xmlns:xlink="http://www.w3.org/1999/xlink"
   xmlns="http://www.w3.org/2000/svg"
   xmlns:svg="http://www.w3.org/2000/svg"><defs
     id="defs9"><linearGradient
       inkscape:collect="always"
       id="linearGradient1095"><stop
         style="stop-color:#ce2c8d;stop-opacity:1;"
         offset="0"
         id="stop1091" /><stop
         style="stop-color:#ffffff;stop-opacity:1"
         offset="1"
         id="stop1093" /></linearGradient><linearGradient
       inkscape:collect="always"
       xlink:href="#linearGradient1095"
       id="linearGradient1097"
       x1="65.836899"
       y1="43.841801"
       x2="-4.2705827"
       y2="-88.977081"
       gradientUnits="userSpaceOnUse" /></defs><sodipodi:namedview
     id="namedview7"
     pagecolor="#ffffff"
     bordercolor="#666666"
     borderopacity="1.0"
     inkscape:pageshadow="2"
     inkscape:pageopacity="0.0"
     inkscape:pagecheckerboard="0"
     showgrid="false"
     inkscape:zoom="1.3704276"
     inkscape:cx="-54.727444"
     inkscape:cy="62.389286"
     inkscape:window-width="1878"
     inkscape:window-height="1011"
     inkscape:window-x="42"
     inkscape:window-y="32"
     inkscape:window-maximized="1"
     inkscape:current-layer="layer1"
     inkscape:showpageshadow="2"
     inkscape:deskcolor="#d1d1d1" /><g
     inkscape:groupmode="layer"
     id="layer2"
     inkscape:label="Layer 2"><path
       sodipodi:type="star"
       style="fill:url(#linearGradient1097);fill-opacity:1;stroke:#3bb0f4;stroke-width:0;stroke-miterlimit:4;stroke-dasharray:none"
       id="path859"
       inkscape:flatsided="true"
       sodipodi:sides="4"
       sodipodi:cx="63.406307"
       sodipodi:cy="46.851624"
       sodipodi:r1="86.300095"
       sodipodi:r2="61.02338"
       sodipodi:arg1="0.78539816"
       sodipodi:arg2="1.5707963"
       inkscape:rounded="0.15"
       inkscape:randomized="0"
       d="m 124.42969,107.87501 c -12.94501,12.94501 -109.10175,12.94501 -122.0467647,0 -12.9450143,-12.945018 -12.9450143,-109.1017541 -4e-7,-122.046768 12.9450141,-12.945015 109.1017451,-12.945015 122.0467651,-10e-7 12.94501,12.9450144 12.94501,109.10175 0,122.046769 z"
       inkscape:export-filename="/home/marc/www/hhdev/protected/modules/alt-notification/resources/module_image.png"
       inkscape:export-xdpi="347.45001"
       inkscape:export-ydpi="347.45001" /></g><g
     inkscape:groupmode="layer"
     id="layer1"
     inkscape:label="Layer 1"><path
       fill-rule="nonzero"
       d="m 69.715629,3.2845168 c 2.636571,0.8107651 5.151862,1.9194427 7.509662,3.2877375 A 33.411541,33.411541 0 0 0 70.677482,9.7599842 C 69.424086,9.2428817 68.132406,8.8066439 66.80667,8.4597811 65.853329,8.2108067 65.051075,7.4830377 64.757413,6.4679855 64.372243,5.1401178 63.529563,4.1633736 62.480465,3.5462644 61.55479,2.9972349 60.433339,2.7205953 59.305508,2.7205953 58.192568,2.707881 57.081761,2.9865926 56.158216,3.5377411 55.147414,4.13997 54.33453,5.1039411 53.957872,6.4275592 53.672721,7.3915305 52.898132,8.1874037 51.853296,8.4406283 46.124751,9.8365877 41.006936,12.947715 37.05952,17.150485 c -3.964437,4.219805 -6.747845,9.546157 -7.801204,15.357696 -0.710747,3.930393 -0.61924,8.875837 -0.538387,13.423351 l 0.0638,4.211281 c 0,6.718062 -1.170388,12.369992 -3.770794,17.347362 -2.491876,4.766693 -6.249897,8.818376 -11.495384,12.493413 l 91.392829,0.0024 c -3.94741,-2.747231 -7.050021,-5.717901 -9.403582,-9.048207 2.034371,-0.429846 4.002751,-1.042706 5.883892,-1.825806 1.96413,2.383346 4.46452,4.568786 7.55435,6.637185 1.2002,0.800124 1.92371,1.904551 2.24504,3.087713 l 0.0447,0.189394 c 0.21705,0.942698 0.16598,1.932216 -0.11066,2.845119 -0.29579,0.970363 -0.85757,1.874754 -1.62578,2.551456 l -0.25536,0.200036 c -0.89163,0.695854 -2.02797,1.132093 -3.33243,1.136342 l -29.006603,0.0058 -0.01919,0.07664 c -3.51966,20.5479 -31.94106,20.49257 -35.364992,-0.06813 l -28.995975,0.0048 c -1.51087,0 -2.7897879,-0.572433 -3.7346169,-1.466182 -0.746924,-0.698022 -1.268277,-1.593901 -1.534274,-2.540861 l -0.04685,-0.193645 c -0.212799,-0.893749 -0.208549,-1.853471 0.04249,-2.764254 0.342612,-1.251253 1.121451,-2.396119 2.370585,-3.177088 C 14.41335,72.38474 17.77131,68.882061 19.89292,64.817606 c 2.134372,-4.08573 3.094093,-8.875837 3.094093,-14.674604 l -0.04038,-4.124036 c -0.083,-4.815642 -0.180884,-10.054748 0.625619,-14.529909 1.257645,-6.941489 4.568798,-13.282905 9.275898,-18.298571 4.345358,-4.6241168 9.897281,-8.1374246 16.138666,-9.9568491 0.938448,-2.0449954 2.432295,-3.59843426 4.202782,-4.6539124 1.838579,-1.0980471 3.985711,-1.6470648 6.115833,-1.6449339 2.115217,-0.010591 4.260232,0.5405062 6.109452,1.6300418 1.815174,1.06612044 3.338818,2.642951 4.300669,4.7198733 z m 26.60624,21.6863272 c -0.33835,-0.231952 -0.727784,-0.338351 -1.119334,-0.257486 -0.387289,0.07452 -0.725639,0.28302 -0.95759,0.619239 l -1.325738,1.868375 c -0.89588,-0.400062 -2.038614,-0.661798 -3.008979,-0.802254 l -0.412822,-2.442927 c -0.08087,-0.410703 -0.289412,-0.723519 -0.600099,-0.95972 -0.336219,-0.231953 -0.697973,-0.308555 -1.115057,-0.231953 l -3.060048,0.546899 c -0.391549,0.07663 -0.702234,0.259605 -0.959721,0.595837 -0.234082,0.338351 -0.338351,0.702235 -0.261747,1.117189 l 0.389419,2.232258 c -0.940568,0.393681 -1.874755,0.966102 -2.672747,1.608759 l -2.076922,-1.430006 c -0.338351,-0.234082 -0.697974,-0.33622 -1.089524,-0.259617 -0.389432,0.08087 -0.725651,0.289413 -0.959722,0.625632 l -1.766237,2.517411 c -0.231951,0.33622 -0.334088,0.723508 -0.257486,1.115059 0.07452,0.414964 0.283021,0.725649 0.623503,0.95972 l 1.866243,1.325737 c -0.393681,0.887381 -0.661797,2.042877 -0.800124,3.008979 L 74.31633,37.14081 c -0.417084,0.08087 -0.727769,0.287269 -0.961839,0.597967 -0.234083,0.336219 -0.308567,0.700104 -0.234083,1.115058 l 0.544768,3.062178 c 0.07875,0.39155 0.259605,0.700105 0.597955,0.959722 0.336232,0.234081 0.702248,0.34048 1.117201,0.259617 l 2.230128,-0.387301 c 0.412835,0.974625 0.976745,1.855612 1.608757,2.698293 l -1.427874,2.049257 c -0.234082,0.33835 -0.33622,0.700105 -0.257485,1.089523 0.07664,0.391551 0.285151,0.725651 0.623501,0.959722 l 2.542945,1.791771 c 0.336219,0.234083 0.725639,0.310686 1.110807,0.234083 0.391551,-0.07664 0.72777,-0.259617 0.991637,-0.597968 l 1.319356,-1.893908 c 0.908654,0.40218 2.027973,0.653285 3.015359,0.806503 l 0.412835,2.438676 c 0.07452,0.414954 0.28302,0.725639 0.595836,0.959722 0.338352,0.231951 0.702236,0.312816 1.11719,0.231951 l 3.062177,-0.542636 c 0.39155,-0.08087 0.697974,-0.261748 0.959722,-0.600098 0.231951,-0.33622 0.334089,-0.697974 0.257486,-1.11294 l -0.38517,-2.232259 c 0.983137,-0.414953 1.84284,-0.972482 2.69403,-1.610876 l 2.05352,1.427874 c 0.33835,0.234083 0.69797,0.33622 1.11506,0.259617 0.41496,-0.07663 0.72564,-0.28302 0.95972,-0.625633 l 1.789641,-2.542943 a 1.4244752,1.4244752 0 0 0 0.23408,-1.110809 c -0.0787,-0.391551 -0.25748,-0.72777 -0.59584,-0.989518 l -1.893901,-1.295941 c 0.39367,-0.889498 0.661801,-2.047126 0.800121,-3.008978 l 2.4408,-0.414953 c 0.41709,-0.07875 0.72778,-0.287282 0.96184,-0.600099 0.23408,-0.33622 0.31495,-0.697973 0.23408,-1.112939 l -0.54477,-3.064296 c -0.0787,-0.387301 -0.25961,-0.700105 -0.59795,-0.957603 -0.33623,-0.236202 -0.70223,-0.338338 -1.11719,-0.261736 l -2.230131,0.39155 c -0.42986,-0.970363 -0.9427,-1.84497 -1.60876,-2.672759 l 1.42788,-2.079041 c 0.23408,-0.334088 0.33621,-0.700104 0.25748,-1.085273 -0.0766,-0.39155 -0.28515,-0.729902 -0.6235,-0.966102 l -2.51741,-1.759846 z m -7.782066,6.626554 c 3.613327,0 6.54144,2.930245 6.54144,6.543559 0,3.613327 -2.928113,6.541441 -6.54144,6.541441 -3.613314,0 -6.54569,-2.928114 -6.54569,-6.541441 0,-3.613314 2.932376,-6.543559 6.54569,-6.543559 z m -0.0058,-20.92876 c 7.588406,0 14.457547,3.077069 19.426397,8.045916 4.96886,4.970979 8.04805,11.840128 8.04805,19.426403 0,7.582026 -3.07919,14.457556 -8.04805,19.426403 -4.96885,4.96886 -11.844371,8.048061 -19.426397,8.048061 -7.582014,0 -14.455425,-3.079201 -19.426403,-8.048061 -4.968848,-4.968847 -8.045918,-11.844377 -8.045918,-19.426403 0,-7.586275 3.07707,-14.455424 8.045918,-19.426403 4.970893,-4.968847 11.844303,-8.045916 19.426317,-8.045916 z m 16.098147,11.374091 c -4.11553,-4.115525 -9.810029,-6.666981 -16.098233,-6.666981 -6.286073,0 -11.982702,2.551456 -16.098227,6.666981 -4.115526,4.115526 -6.666993,9.812155 -6.666993,16.098228 0,6.286085 2.551467,11.982702 6.666993,16.098239 4.115525,4.115525 9.812154,6.666982 16.098227,6.666982 6.288204,0 11.982703,-2.551457 16.098233,-6.666982 4.11554,-4.115537 6.66698,-9.812154 6.66698,-16.098239 0,-6.286073 -2.55144,-11.982702 -6.66698,-16.098228 z"
       id="path1212"
       style="fill:#ffffff;stroke-width:0.212799" /></g></svg>
